<svg width="227" height="213" viewBox="0 0 227 213" fill="none" xmlns="http://www.w3.org/2000/svg">
<path d="M124.603 133.867C120.56 137.06 114.567 138.563 109.244 139.167C103.911 139.771 98.8096 139.518 96.326 138.869L97.212 135.475C99.1111 135.971 103.731 136.261 108.849 135.681C113.977 135.1 119.167 133.69 122.429 131.114L124.603 133.867Z" fill="white"/>
<path d="M148.091 102.892C147.554 102.678 147.091 102.381 146.702 102C146.301 101.614 145.966 101.198 145.698 100.752C145.417 100.301 145.204 99.869 145.057 99.4569C144.891 99.0233 144.814 98.5894 144.824 98.1551C144.84 97.7086 144.927 97.2838 145.088 96.8808C145.243 96.49 145.466 96.1332 145.757 95.8104C146.041 95.4706 146.4 95.1963 146.835 94.9873C147.22 94.801 147.669 94.6402 148.182 94.505C148.684 94.3651 149.211 94.2988 149.762 94.306C150.307 94.2963 150.848 94.3983 151.385 94.6119C151.91 94.8208 152.373 95.1182 152.774 95.504C153.168 95.8729 153.499 96.2805 153.768 96.7268C154.036 97.1731 154.252 97.5986 154.416 98.0031C154.588 98.4535 154.667 98.902 154.651 99.3485C154.641 99.7828 154.558 100.195 154.403 100.586C154.242 100.989 154.017 101.352 153.726 101.675C153.435 101.998 153.073 102.264 152.638 102.473C152.236 102.667 151.785 102.833 151.283 102.973C150.781 103.113 150.258 103.188 149.713 103.198C149.157 103.203 148.616 103.101 148.091 102.892ZM149.14 100.254C149.526 100.407 149.9 100.521 150.262 100.594C150.63 100.656 150.964 100.682 151.265 100.675C151.558 100.65 151.797 100.611 151.981 100.556C152.198 100.487 152.368 100.399 152.491 100.293C152.603 100.182 152.686 100.059 152.739 99.9245C152.793 99.7902 152.817 99.6442 152.812 99.4867C152.795 99.3245 152.73 99.1498 152.615 98.9627C152.516 98.768 152.364 98.573 152.158 98.3778C151.945 98.1658 151.687 97.9642 151.384 97.7731C151.07 97.5774 150.721 97.4029 150.335 97.2497C149.938 97.0918 149.568 96.9869 149.224 96.9348C148.872 96.8658 148.552 96.8375 148.264 96.8499C147.98 96.8501 147.732 96.8788 147.52 96.9359C147.296 96.9884 147.128 97.0702 147.016 97.1813C146.893 97.2878 146.804 97.4082 146.751 97.5425C146.698 97.6768 146.679 97.8251 146.696 97.9873C146.701 98.1448 146.764 98.3256 146.886 98.5296C147.001 98.7167 147.159 98.914 147.36 99.1214C147.561 99.3288 147.811 99.5342 148.109 99.7375C148.4 99.9239 148.743 100.096 149.14 100.254Z" fill="white"/>
<path d="M43.9805 85.5801C43.5456 79.8243 49.0308 77.4845 53.8125 79.8203C58.4964 82.1047 62.3616 88.1529 62.7441 93.3193C62.8415 94.6365 62.1141 95.9649 62.6729 97.1318L71.4004 107.205C79.4924 102.27 89.0185 106.026 97.8525 105.953C101.817 105.92 114.233 104.675 115.857 100.533C116.423 99.0871 116.364 96.3294 116.182 93.4434C118.911 94.5319 122.488 95.7399 126.434 96.6865C131.382 97.8737 137.081 98.6933 142.494 98.2656C142.849 101.802 143.013 105.346 142.827 108.902C150.364 107.727 156.676 106.347 164.293 107.587C172.437 108.911 182.918 113.905 186.176 121.977C187.992 126.47 186.811 130.691 182.587 133.19C174.924 137.723 171.078 131.647 165.264 128.227C162.213 126.431 157.891 124.422 154.322 124.962C161.037 131.064 169.13 138.527 169.545 148.32C169.752 153.218 165.731 157.551 161.021 158.374C150.065 160.286 146.886 147.031 139.918 141.326C134.181 136.629 127.891 136.585 121.798 133.01C115.409 135.929 108.561 137.325 101.57 136.038C101.448 140.8 100.476 145.569 98.8066 150.024C95.7156 158.274 86.5286 172.603 76.4756 171.946C71.7507 171.638 68.2999 166.58 72.6143 162.743C75.1428 160.494 76.8115 158.647 80.041 154.879C83.2707 151.111 90.7517 141.55 88.6904 132.983C87.8807 134.507 87.7976 136.339 87.2568 138.016C83.6463 149.161 73.8484 159.263 64.7686 166.379C59.4013 170.586 52.9294 174.157 46.2275 170.528C39.5257 166.9 38.1113 157.852 42.5771 152.597C49.8978 146.266 54.3344 143.378 59.0488 136.039C61.2533 132.609 63.3941 128.318 66.8789 125.963C65.3833 122.581 65.3836 114.47 67.623 111.507L58.0322 99.8281C50.9258 99.2712 44.5188 92.6854 43.9805 85.5801ZM70.7617 129.759C70.4919 129.489 70.222 129.489 69.9521 129.579C69.6824 129.669 69.4126 129.939 68.9629 130.658C68.513 131.378 65.3609 136.894 64.124 138.881C63.2567 140.275 62.135 141.933 61.1416 143.238C60.2754 144.38 55.3157 149.596 55.2754 150.242C55.151 152.258 59.7986 149.098 60.4199 148.632C64.163 145.821 68.4617 139.719 70.2441 135.397C71.1229 133.267 71.0314 130.03 70.7617 129.759ZM132.032 121.438C131.014 121.314 127.813 121.019 126.234 121.536C125.624 121.735 125.215 122.36 125.351 122.988C125.424 123.333 125.637 123.61 126.049 123.828C126.986 124.322 131.377 124.581 132.962 124.944C137.484 125.988 142.011 128.229 145.856 130.779C146.266 131.052 150.14 134.501 150.523 133.867H150.521C147.89 126.974 139.089 122.296 132.032 121.438ZM93.0859 49.3486C96.2524 41.3405 104.278 38.0936 112.301 41.1133C120.082 44.0414 125.348 53.6056 126.647 61.4629L126.654 61.4492C132.108 58.7928 137.958 57.9152 143.971 57.6484C149.567 57.3987 157.222 57.8466 162.175 60.5918C163.06 61.0835 165.916 63.4452 166.36 63.4473C166.924 63.4514 168.116 63.1768 168.679 62.9834C171.227 62.1081 173.412 55.5645 176.171 56.5967C177.207 56.9847 179.508 63.4023 179.823 64.7129C180.167 66.1299 180.764 68.1025 179.756 69.2979C178.07 70.5404 173.668 68.368 171.83 68.5049C170.822 68.5779 169.804 69.3462 168.733 69.4248L168.432 69.7275C167.938 82.5649 152.97 90.5355 141.296 89.4062C141.473 90.5143 141.644 91.6228 141.805 92.7314C137.274 93.051 132.306 92.3678 127.732 91.2705C122.63 90.0463 118.224 88.3595 115.789 87.2148L115.778 87.2363C115.754 86.5445 115.749 85.9146 115.777 85.375C115.938 82.3672 116.666 79.4968 117.322 76.582C104.11 77.8088 87.647 63.1048 93.0859 49.3486ZM107.939 45.9834C104.179 44.5879 99.3966 45.5193 98.6895 49.9648C103.533 48.5024 108.362 50.2421 112.08 53.3945L115.462 56.8486C114.815 52.5421 112.224 47.5746 107.939 45.9834Z" fill="white"/>
</svg>
