<svg width="789" height="229" viewBox="0 0 789 229" fill="none" xmlns="http://www.w3.org/2000/svg">
<path d="M124.603 133.867C120.56 137.06 114.567 138.563 109.244 139.167C103.911 139.771 98.8096 139.518 96.326 138.869L97.212 135.475C99.1111 135.971 103.731 136.261 108.849 135.681C113.977 135.1 119.167 133.69 122.429 131.114L124.603 133.867Z" fill="#75876D"/>
<path d="M148.091 102.892C147.554 102.678 147.091 102.381 146.702 102C146.301 101.614 145.966 101.198 145.698 100.752C145.417 100.301 145.204 99.869 145.057 99.4569C144.891 99.0233 144.814 98.5894 144.824 98.1551C144.84 97.7086 144.927 97.2838 145.088 96.8808C145.243 96.49 145.466 96.1332 145.757 95.8104C146.041 95.4706 146.4 95.1963 146.835 94.9873C147.22 94.801 147.669 94.6402 148.182 94.505C148.684 94.3651 149.211 94.2988 149.762 94.306C150.307 94.2963 150.848 94.3983 151.385 94.6119C151.91 94.8208 152.373 95.1182 152.774 95.504C153.168 95.8729 153.499 96.2805 153.768 96.7268C154.036 97.1731 154.252 97.5986 154.416 98.0031C154.588 98.4535 154.667 98.902 154.651 99.3485C154.641 99.7828 154.558 100.195 154.403 100.586C154.242 100.989 154.017 101.352 153.726 101.675C153.435 101.998 153.073 102.264 152.638 102.473C152.236 102.667 151.785 102.833 151.283 102.973C150.781 103.113 150.258 103.188 149.713 103.198C149.157 103.203 148.616 103.101 148.091 102.892ZM149.14 100.254C149.526 100.407 149.9 100.521 150.262 100.594C150.63 100.656 150.964 100.682 151.265 100.675C151.558 100.65 151.797 100.611 151.981 100.556C152.198 100.487 152.368 100.399 152.491 100.293C152.603 100.182 152.686 100.059 152.739 99.9245C152.793 99.7902 152.817 99.6442 152.812 99.4867C152.795 99.3245 152.73 99.1498 152.615 98.9627C152.516 98.768 152.364 98.573 152.158 98.3778C151.945 98.1658 151.687 97.9642 151.384 97.7731C151.07 97.5774 150.721 97.4029 150.335 97.2497C149.938 97.0918 149.568 96.9869 149.224 96.9348C148.872 96.8658 148.552 96.8375 148.264 96.8499C147.98 96.8501 147.732 96.8788 147.52 96.9359C147.296 96.9884 147.128 97.0702 147.016 97.1813C146.893 97.2878 146.804 97.4082 146.751 97.5425C146.698 97.6768 146.679 97.8251 146.696 97.9873C146.701 98.1448 146.764 98.3256 146.886 98.5296C147.001 98.7167 147.159 98.914 147.36 99.1214C147.561 99.3288 147.811 99.5342 148.109 99.7375C148.4 99.9239 148.743 100.096 149.14 100.254Z" fill="#75876D"/>
<path d="M43.9805 85.5801C43.5456 79.8243 49.0308 77.4844 53.8125 79.8203C58.4965 82.1048 62.3617 88.1529 62.7441 93.3193C62.8414 94.6364 62.1141 95.9649 62.6729 97.1318L71.4004 107.204C79.4923 102.269 89.0185 106.026 97.8525 105.953C101.817 105.92 114.233 104.675 115.857 100.532C116.423 99.0862 116.364 96.3292 116.182 93.4434C118.911 94.5319 122.487 95.7399 126.433 96.6865C131.381 97.8738 137.081 98.6934 142.494 98.2656C142.849 101.802 143.013 105.346 142.827 108.902C150.364 107.727 156.676 106.347 164.293 107.587C172.437 108.911 182.918 113.905 186.176 121.977C187.992 126.47 186.811 130.691 182.587 133.19C174.925 137.723 171.079 131.647 165.265 128.227C162.214 126.431 157.891 124.422 154.322 124.962C161.037 131.064 169.13 138.527 169.545 148.319C169.753 153.217 165.731 157.55 161.021 158.373C150.064 160.285 146.886 147.03 139.918 141.325C134.181 136.628 127.891 136.584 121.798 133.009C115.409 135.928 108.561 137.325 101.57 136.038C101.448 140.8 100.476 145.568 98.8066 150.023C95.7157 158.273 86.5287 172.603 76.4756 171.946C71.7508 171.638 68.3003 166.58 72.6143 162.743C75.1429 160.494 76.8114 158.646 80.041 154.878C83.2707 151.11 90.7517 141.55 88.6904 132.983C87.8808 134.507 87.7975 136.338 87.2568 138.015C83.6463 149.16 73.8485 159.263 64.7686 166.379C59.4013 170.586 52.9294 174.156 46.2275 170.527C39.526 166.898 38.1114 157.852 42.5771 152.597C49.898 146.266 54.3344 143.377 59.0488 136.038C61.2532 132.608 63.3943 128.318 66.8789 125.963C65.3831 122.581 65.3834 114.469 67.623 111.506L58.0322 99.8281C50.9259 99.2713 44.519 92.6853 43.9805 85.5801ZM70.7617 129.758C70.492 129.488 70.2219 129.488 69.9521 129.578C69.6824 129.668 69.4125 129.938 68.9629 130.657C68.5132 131.377 65.3609 136.894 64.124 138.881C63.2568 140.275 62.1349 141.932 61.1416 143.237C60.2759 144.378 55.3176 149.593 55.2754 150.241C55.1507 152.257 59.7976 149.098 60.4199 148.632C64.1631 145.821 68.4618 139.718 70.2441 135.396C71.123 133.266 71.0315 130.028 70.7617 129.758ZM132.032 121.438C131.014 121.314 127.813 121.019 126.234 121.536C125.624 121.736 125.215 122.36 125.351 122.988C125.424 123.333 125.637 123.61 126.049 123.828C126.986 124.322 131.377 124.581 132.962 124.944C137.484 125.988 142.011 128.229 145.856 130.779C146.266 131.053 150.14 134.501 150.523 133.866L150.521 133.867C147.89 126.974 139.089 122.296 132.032 121.438ZM93.0859 49.3486C96.2524 41.3405 104.278 38.0936 112.301 41.1133C120.082 44.0413 125.348 53.6047 126.647 61.4619L126.654 61.4492C132.108 58.7928 137.958 57.9142 143.971 57.6475C149.567 57.3978 157.222 57.8466 162.175 60.5918C163.061 61.0836 165.916 63.4442 166.36 63.4463C166.924 63.4504 168.116 63.1759 168.679 62.9824C171.227 62.1069 173.412 55.5635 176.171 56.5957C177.207 56.9829 179.508 63.403 179.823 64.7129C180.167 66.1299 180.764 68.1016 179.756 69.2969C178.07 70.5398 173.668 68.367 171.83 68.5039C170.822 68.5769 169.804 69.3453 168.733 69.4238L168.432 69.7266C167.938 82.5641 152.97 90.5345 141.296 89.4053C141.474 90.5136 141.645 91.6225 141.806 92.7314C137.275 93.0513 132.307 92.3679 127.732 91.2705C122.63 90.0463 118.224 88.3596 115.789 87.2148L115.778 87.2363C115.754 86.5444 115.749 85.9147 115.777 85.375C115.938 82.3669 116.666 79.4961 117.322 76.5811C104.11 77.8078 87.6475 63.1047 93.0859 49.3486ZM107.939 45.9834C104.179 44.5879 99.3967 45.5186 98.6895 49.9639C103.533 48.5014 108.362 50.242 112.08 53.3945L115.463 56.8486C114.816 52.542 112.224 47.5747 107.939 45.9834Z" fill="#75876D"/>
<path d="M749 84.3975C748.015 91.7116 741.967 96.2125 735.919 97.6191C738.31 100.995 739.717 105.074 739.717 109.716C739.717 125.61 725.65 133.206 707.364 133.206C703.848 133.206 700.472 132.925 697.237 132.222C695.128 133.206 693.861 134.613 693.861 136.723C693.861 139.254 695.971 140.239 698.784 140.239H717.633C737.325 140.239 746.891 147.695 746.891 161.62C746.891 181.031 725.791 188.064 704.974 188.064C688.235 188.064 670.512 183.704 670.512 170.341C670.512 162.886 676.842 158.104 685.844 156.838C679.936 155.15 675.716 150.508 675.716 143.615C675.716 136.442 681.343 131.238 688.657 129.55C680.358 125.752 675.153 119.14 675.153 109.716C675.154 94.1028 688.094 85.6632 707.364 85.6631C714.819 85.6631 721.431 87.2103 726.776 89.8828C729.027 87.3508 730.151 82.7089 730.573 78.3486L749 84.3975ZM697.378 160.214C692.455 160.214 689.22 162.464 689.22 166.402C689.22 171.747 695.549 174.279 705.817 174.279C718.477 174.279 726.635 171.607 726.635 165.84C726.635 162.042 723.259 160.214 717.492 160.214H697.378ZM328.341 85.6631C349.158 85.6632 359.286 100.01 359.286 117.593C359.286 120.547 358.724 124.626 358.021 127.018H314.837C314.978 137.145 320.323 143.053 328.2 143.053C333.967 143.053 338.046 140.24 339.875 133.91L358.724 140.38C354.363 154.165 341.563 160.214 327.778 160.214C306.398 160.214 292.613 146.569 292.613 123.642C292.613 100.433 306.116 85.6631 328.341 85.6631ZM394.401 87.3506H412.828V104.371H394.261V133.065C394.261 138.973 397.215 141.646 402.278 141.646C406.076 141.646 409.312 140.521 412.969 137.989L415.922 154.306C410.858 158.103 403.966 160.214 396.511 160.214C381.46 160.214 371.052 152.899 371.052 136.16V104.371H361.908V87.3506H371.192V66.5518L394.401 63.7393V87.3506ZM466.743 85.6631C483.622 85.6631 494.172 93.118 496.282 106.34L477.012 108.591C476.449 103.668 472.932 100.433 466.884 100.433C461.539 100.433 458.304 102.965 458.304 107.185C458.304 119.703 496.985 108.029 496.985 136.441C496.985 151.914 483.763 160.214 465.196 160.214C449.724 160.214 437.346 153.883 434.251 140.802L453.662 136.441C454.647 141.646 459.429 145.163 465.337 145.163C471.244 145.163 475.042 142.912 475.042 138.411C475.042 126.033 436.642 137.145 436.642 109.575C436.642 93.9621 450.145 85.6631 466.743 85.6631ZM596.162 63.7393L595.423 158.525H575.309L572.636 145.444C569.682 155.15 561.382 160.214 551.114 160.214C535.22 160.214 522.561 147.132 522.561 124.485C522.561 99.5885 534.658 85.6631 552.521 85.6631C562.508 85.6632 569.541 90.0238 572.073 96.4941V63.1963L596.162 63.7393ZM636.237 85.0635C639.508 85.0635 642.729 85.6278 645.897 86.7568C649.169 87.7918 652.185 89.5321 654.945 91.9785C657.399 94.1426 659.852 96.8243 662.306 100.023C664.759 103.128 666.753 106.61 668.286 110.468C669.922 114.231 670.739 118.278 670.739 122.606C670.739 126.84 669.922 130.886 668.286 134.744C666.753 138.508 664.759 141.942 662.306 145.047C659.852 148.152 657.399 150.834 654.945 153.092C652.185 155.538 649.169 157.326 645.897 158.455C642.729 159.584 639.508 160.149 636.237 160.149C632.864 160.149 629.593 159.584 626.424 158.455C623.255 157.326 620.29 155.538 617.53 153.092C614.975 150.834 612.47 148.152 610.017 145.047C607.563 141.942 605.518 138.508 603.883 134.744C602.247 130.886 601.429 126.84 601.429 122.606C601.429 118.278 602.247 114.231 603.883 110.468C605.518 106.61 607.563 103.128 610.017 100.023C612.47 96.8245 614.975 94.1425 617.53 91.9785C620.188 89.6264 623.102 87.8859 626.271 86.7568C629.542 85.6278 632.864 85.0635 636.237 85.0635ZM249.631 138.833H291.267V158.525H226V59.6133H250.294L249.631 138.833ZM636.237 98.4717C635.113 98.4717 633.989 98.7539 632.864 99.3184C631.74 99.7888 630.615 100.729 629.49 102.141C628.468 103.458 627.497 105.105 626.577 107.081C625.657 109.057 624.891 111.362 624.277 113.996C623.766 116.537 623.51 119.407 623.51 122.606C623.51 125.711 623.766 128.628 624.277 131.356C624.891 134.085 625.657 136.485 626.577 138.555C627.599 140.53 628.57 142.083 629.49 143.212C630.615 144.529 631.74 145.471 632.864 146.035C633.989 146.506 635.113 146.741 636.237 146.741C637.362 146.741 638.487 146.506 639.611 146.035C640.736 145.471 641.809 144.529 642.831 143.212C643.955 141.989 644.926 140.39 645.744 138.414C646.664 136.344 647.38 133.991 647.892 131.356C648.403 128.628 648.658 125.711 648.658 122.606C648.658 119.407 648.352 116.537 647.738 113.996C647.227 111.362 646.511 109.057 645.591 107.081C644.773 105.105 643.853 103.458 642.831 102.141C641.809 100.73 640.736 99.7889 639.611 99.3184C638.487 98.7538 637.362 98.4717 636.237 98.4717ZM559.836 102.542C551.396 102.542 546.332 109.576 546.332 123.642C546.332 135.738 551.396 142.209 559.414 142.209C566.306 142.209 572.073 136.864 572.073 125.752V117.312C572.073 107.325 566.025 102.542 559.836 102.542ZM707.364 99.0264C701.176 99.0265 697.8 102.824 697.8 109.575C697.8 116.045 701.175 120.125 707.364 120.125C713.272 120.125 716.789 116.327 716.789 109.575C716.789 102.683 713.272 99.0264 707.364 99.0264ZM327.778 101.979C320.605 101.979 315.821 107.325 315.118 116.046H337.624C337.905 115.061 337.905 113.936 337.905 112.811C337.905 107.044 334.389 101.98 327.778 101.979ZM442.726 63.6094C439.425 74.3357 435.712 82.9996 429.725 92.4883H417.973C418.593 89.9923 418.776 89.1116 419.396 86.4492C420.017 83.7867 420.593 81.1235 421.125 78.4609C421.745 75.7154 422.278 73.0946 422.721 70.5986C423.253 68.1026 423.696 65.7727 424.051 63.6094H442.726Z" fill="black"/>
</svg>
